REM DIRINDEX 1\2,1\3,1\4
REM DIRNAME cjc151,folder01,folder02,folder03
TITLE ""
FILE "122 122_TOEFL_3900.mp3" MP3
  TRACK 01 AUDIO
    TITLE "2:cjc151_5293"
    INDEX 01 00:00:00
  TRACK 02 AUDIO
    TITLE "0:"
    INDEX 01 00:01:24
  TRACK 03 AUDIO
    TITLE "3:cjc151_5294"
    INDEX 01 00:03:02
  TRACK 04 AUDIO
    TITLE "0:"
    INDEX 01 00:06:69
  TRACK 05 AUDIO
    TITLE "2:cjc151_5295"
    INDEX 01 00:08:46
  TRACK 06 AUDIO
    TITLE "0:"
    INDEX 01 00:09:45
  TRACK 07 AUDIO
    TITLE "3:cjc151_5296"
    INDEX 01 00:11:23
  TRACK 08 AUDIO
    TITLE "0:"
    INDEX 01 00:15:64
  TRACK 09 AUDIO
    TITLE "2:cjc151_5297"
    INDEX 01 00:17:41
  TRACK 10 AUDIO
    TITLE "0:"
    INDEX 01 00:18:50
  TRACK 11 AUDIO
    TITLE "3:cjc151_5298"
    INDEX 01 00:20:30
  TRACK 12 AUDIO
    TITLE "0:"
    INDEX 01 00:24:69
  TRACK 13 AUDIO
    TITLE "2:cjc151_5299"
    INDEX 01 00:26:48
  TRACK 14 AUDIO
    TITLE "0:"
    INDEX 01 00:27:69
  TRACK 15 AUDIO
    TITLE "3:cjc151_5300"
    INDEX 01 00:29:48
  TRACK 16 AUDIO
    TITLE "0:"
    INDEX 01 00:34:26
  TRACK 17 AUDIO
    TITLE "2:cjc151_5301"
    INDEX 01 00:36:05
  TRACK 18 AUDIO
    TITLE "0:"
    INDEX 01 00:37:16
  TRACK 19 AUDIO
    TITLE "3:cjc151_5302"
    INDEX 01 00:38:71
  TRACK 20 AUDIO
    TITLE "0:"
    INDEX 01 00:41:51
  TRACK 21 AUDIO
    TITLE "2:cjc151_5303"
    INDEX 01 00:43:31
  TRACK 22 AUDIO
    TITLE "0:"
    INDEX 01 00:44:44
  TRACK 23 AUDIO
    TITLE "3:cjc151_5304"
    INDEX 01 00:46:19
  TRACK 24 AUDIO
    TITLE "0:"
    INDEX 01 00:50:05
  TRACK 25 AUDIO
    TITLE "2:cjc151_5305"
    INDEX 01 00:51:58
  TRACK 26 AUDIO
    TITLE "0:"
    INDEX 01 00:52:55
  TRACK 27 AUDIO
    TITLE "3:cjc151_5306"
    INDEX 01 00:54:32
  TRACK 28 AUDIO
    TITLE "0:"
    INDEX 01 00:58:36
  TRACK 29 AUDIO
    TITLE "2:cjc151_5307"
    INDEX 01 01:00:15
  TRACK 30 AUDIO
    TITLE "0:"
    INDEX 01 01:01:17
  TRACK 31 AUDIO
    TITLE "3:cjc151_5308"
    INDEX 01 01:02:71
  TRACK 32 AUDIO
    TITLE "0:"
    INDEX 01 01:07:29
  TRACK 33 AUDIO
    TITLE "2:cjc151_5309"
    INDEX 01 01:09:09
  TRACK 34 AUDIO
    TITLE "0:"
    INDEX 01 01:10:18
  TRACK 35 AUDIO
    TITLE "3:cjc151_5310"
    INDEX 01 01:11:68
  TRACK 36 AUDIO
    TITLE "0:"
    INDEX 01 01:15:74
  TRACK 37 AUDIO
    TITLE "2:cjc151_5311"
    INDEX 01 01:17:53
  TRACK 38 AUDIO
    TITLE "0:"
    INDEX 01 01:18:68
  TRACK 39 AUDIO
    TITLE "3:cjc151_5312"
    INDEX 01 01:20:48
  TRACK 40 AUDIO
    TITLE "0:"
    INDEX 01 01:25:00
  TRACK 41 AUDIO
    TITLE "2:cjc151_5313"
    INDEX 01 01:26:56
  TRACK 42 AUDIO
    TITLE "0:"
    INDEX 01 01:28:04
  TRACK 43 AUDIO
    TITLE "3:cjc151_5314"
    INDEX 01 01:29:58
  TRACK 44 AUDIO
    TITLE "0:"
    INDEX 01 01:34:40
  TRACK 45 AUDIO
    TITLE "2:cjc151_5315"
    INDEX 01 01:36:17
  TRACK 46 AUDIO
    TITLE "0:"
    INDEX 01 01:37:38
  TRACK 47 AUDIO
    TITLE "3:cjc151_5316"
    INDEX 01 01:39:15
  TRACK 48 AUDIO
    TITLE "0:"
    INDEX 01 01:43:47
  TRACK 49 AUDIO
    TITLE "2:cjc151_5317"
    INDEX 01 01:45:26
  TRACK 50 AUDIO
    TITLE "0:"
    INDEX 01 01:46:47
  TRACK 51 AUDIO
    TITLE "3:cjc151_5318"
    INDEX 01 01:48:24
  TRACK 52 AUDIO
    TITLE "0:"
    INDEX 01 01:51:19
  TRACK 53 AUDIO
    TITLE "2:cjc151_5319"
    INDEX 01 01:52:73
  TRACK 54 AUDIO
    TITLE "0:"
    INDEX 01 01:54:11
  TRACK 55 AUDIO
    TITLE "3:cjc151_5320"
    INDEX 01 01:55:63
  TRACK 56 AUDIO
    TITLE "0:"
    INDEX 01 02:00:20
  TRACK 57 AUDIO
    TITLE "2:cjc151_5321"
    INDEX 01 02:01:72
  TRACK 58 AUDIO
    TITLE "0:"
    INDEX 01 02:03:20
  TRACK 59 AUDIO
    TITLE "3:cjc151_5322"
    INDEX 01 02:04:72
  TRACK 60 AUDIO
    TITLE "0:"
    INDEX 01 02:09:01
  TRACK 61 AUDIO
    TITLE "2:cjc151_5323"
    INDEX 01 02:10:55
  TRACK 62 AUDIO
    TITLE "0:"
    INDEX 01 02:11:63
  TRACK 63 AUDIO
    TITLE "3:cjc151_5324"
    INDEX 01 02:13:42
  TRACK 64 AUDIO
    TITLE "0:"
    INDEX 01 02:17:26
  TRACK 65 AUDIO
    TITLE "2:cjc151_5325"
    INDEX 01 02:19:03
  TRACK 66 AUDIO
    TITLE "0:"
    INDEX 01 02:20:38
  TRACK 67 AUDIO
    TITLE "3:cjc151_5326"
    INDEX 01 02:22:17
  TRACK 68 AUDIO
    TITLE "0:"
    INDEX 01 02:26:64
  TRACK 69 AUDIO
    TITLE "2:cjc151_5327"
    INDEX 01 02:28:35
  TRACK 70 AUDIO
    TITLE "0:"
    INDEX 01 02:29:62
  TRACK 71 AUDIO
    TITLE "3:cjc151_5328"
    INDEX 01 02:31:40
  TRACK 72 AUDIO
    TITLE "0:"
    INDEX 01 02:35:53
  TRACK 73 AUDIO
    TITLE "2:cjc151_5329"
    INDEX 01 02:37:33
  TRACK 74 AUDIO
    TITLE "0:"
    INDEX 01 02:38:46
  TRACK 75 AUDIO
    TITLE "3:cjc151_5330"
    INDEX 01 02:40:25
  TRACK 76 AUDIO
    TITLE "0:"
    INDEX 01 02:44:46
  TRACK 77 AUDIO
    TITLE "2:cjc151_5331"
    INDEX 01 02:46:26
  TRACK 78 AUDIO
    TITLE "0:"
    INDEX 01 02:47:37
  TRACK 79 AUDIO
    TITLE "3:cjc151_5332"
    INDEX 01 02:49:14
  TRACK 80 AUDIO
    TITLE "0:"
    INDEX 01 02:53:39
  TRACK 81 AUDIO
    TITLE "2:cjc151_5333"
    INDEX 01 02:55:19
  TRACK 82 AUDIO
    TITLE "0:"
    INDEX 01 02:56:30
  TRACK 83 AUDIO
    TITLE "3:cjc151_5334"
    INDEX 01 02:58:05
  TRACK 84 AUDIO
    TITLE "0:"
    INDEX 01 03:02:27
  TRACK 85 AUDIO
    TITLE "2:cjc151_5335"
    INDEX 01 03:04:06
  TRACK 86 AUDIO
    TITLE "0:"
    INDEX 01 03:05:50
  TRACK 87 AUDIO
    TITLE "3:cjc151_5336"
    INDEX 01 03:07:30
  TRACK 88 AUDIO
    TITLE "0:"
    INDEX 01 03:11:33
